<svg width="77" height="77" xmlns="http://www.w3.org/2000/svg" viewBox="0 0 77 77" style="enable-background:new 0 0 77 77" xml:space="preserve">
	<style>
		@media (prefers-color-scheme: dark) {
      path { fill: #ffffff }
    }
	</style>
	<path d="m13.3 14.9 6 .3-1.8 2-5.4-.2 3.1 2.7-1.5 1.7-6.4-5.9 1.4-1.6 2.9 2.7.1-.1-1.1-4.6 1.6-1.8zm15.1-8.8c.1.3.3.6.3.9.3.6.3 1.2.2 1.8-.2.7-.8 1.5-1.5 2-.4.3-.8.5-1.3.7-1 .5-1.8.6-2.7.5-.5-.1-.9-.2-1.3-.4-.7-.4-1.2-1-1.6-2l-1.9-4.4 2-.9 1.8 3.9c.3.8.6 1.2.9 1.4.6.5 1.4.5 2.2.2.9-.4 1.5-1.4 1.3-2.3 0-.2-.1-.4-.2-.5l-.3-.6-1.8-3.9 2-.9 1.9 4.5m14.7 2.8h-1.8l-4.7-5.4v5.3h-2.2l.1-8.7 2 .1 4.6 5.1V.2l2.2.1zM57.7 8l-.1-.1c-.7-.9-1.6-1.6-2.5-2-1.7-.8-3.3-.4-4 1.1-.7 1.3 0 2.8 1.5 3.6.5.2 1 .4 1.5.4l.4-.9-1.1-.5.7-1.6 3.1 1.5-1.5 3.2c-1.1.3-2.5.1-3.8-.6-2.7-1.3-3.8-3.9-2.7-6.2 1.2-2.4 3.8-3.1 6.6-1.7.7.3 1.4.8 1.9 1.2.3.3.5.4.9.9L57.7 8m5.5 13.7-4.4-4.9 6.5-5.8 1.5 1.6-5.3 4.7 2.9 3.3zM7.8 31.9l-.2.8c-.2 1-.5 1.3-1.2 1.2-.7-.1-.9-.6-.7-1.6l.1-.8 2 .4M9.7 30l-8.5-1.5-.7 3.9c-.1.8-.2 1.2-.1 1.6.2 1.1.9 1.9 2 2.1 1.1.2 1.9-.3 2.5-1.4.2.8.8 1.3 1.5 1.5.9.2 1.8-.4 2.3-1.3.2-.4.3-.7.5-1.6l.5-3.3zm-5.3 1.3-.2.9c-.2 1.5-.5 1.9-1.3 1.8-.8-.1-.9-.6-.7-2l.2-1 2 .3zM.192 42.886l8.622-1.165.295 2.18-8.622 1.165zM9.8 51.6l.4.8c.4.9.4 1.4-.2 1.7-.6.3-1 .1-1.5-.9l-.4-.7 1.7-.9m.4-2.7-7.8 3.9 1.8 3.6c.3.7.6 1.1.9 1.4.8.8 1.9 1 2.8.5 1-.5 1.4-1.4 1.2-2.6.6.5 1.4.6 2.1.3.8-.4 1.2-1.4 1-2.4-.1-.5-.2-.8-.6-1.6l-1.4-3.1zm-3.5 4.2.4.9c.7 1.3.6 1.8-.1 2.2-.7.3-1.1.1-1.7-1.2l-.5-1 1.9-.9zM15 69.5 10.1 65l5.9-6.4 1.6 1.5-4.8 5.2 3.3 3zm3.778 2.378 4.225-7.605 1.923 1.068-4.225 7.605zM35.4 72.9c-.3 1.5-1.6 2.4-3.1 2.1-1.6-.3-2.5-1.5-2.3-3.1.3-1.6 1.5-2.4 3.1-2.2 1.7.4 2.6 1.6 2.3 3.2m2.2.3c.4-2.5-1.4-4.8-4.2-5.2-2.8-.5-5.2 1.1-5.6 3.6-.4 2.5 1.4 4.7 4.1 5.2 2.8.5 5.3-1.1 5.7-3.6M50 68.3l-3.1.7 1.7 6.9-2.2.5-1.6-6.8-3.1.7-.3-1.6 8.2-2zm13.8-.4-5.2 3.7-5.1-7 5.1-3.7 1 1.3-3.4 2.4 1.1 1.5 3.1-2.4 1 1.4-3.2 2.3 1.2 1.7 3.4-2.5zm3.8-12 6-.9-1.5 2.3-5.2.8 3.4 2.2-1.1 1.8-7.4-4.6 1.2-1.8 3.3 2.1v-.1l-1.9-4.3 1.3-2.1zm9.2-13.3-1.1 6.2-8.6-1.6 1.2-6.1 1.6.3-.8 4 1.8.3.7-3.8 1.6.3-.7 3.8 2 .4.8-4.1zm-8.5-14.4.6 3 6.9-1.4.5 2.1-6.9 1.5.6 3-1.6.4-1.7-8.3zm-31.1.9v-2.7h2.9v2.7h-2.9m0 17.2V31.8h2.9v14.5h-2.9m-12.1 2.8-.6-2.8h12.7v2.8z"/><path d="m52 49.1.7-2.9-12.7.1v2.8zM21.1 31.3s8.4-2.3 16-2.2v2.7s-6.8-.2-15.4 2.1l-.6-2.6m35 0S47.7 29 40 29.1v2.7s6.9-.3 15.5 2.1l.6-2.6m-37.8.7-.6-2.6s1.2-.3 2.8-.6l.6 2.6-2.8.6m3.4 14.9-2.8-12.4 2.8-.6 2.8 12.4-2.8.6"/><path d="m58.9 31.9.6-2.6s-1.2-.3-2.8-.6l-.7 2.6 2.9.6m-3.4 15 2.8-12.4-2.8-.6-2.8 12.4 2.8.6M7.6 25c-.6 0-1.1-.5-1.1-1.1 0-.6.5-1.1 1.1-1.1.6 0 1.1.5 1.1 1.1 0 .6-.5 1.1-1.1 1.1m61.7-.1c-.6 0-1.1-.5-1.1-1.1 0-.6.5-1.1 1.1-1.1.6 0 1.1.5 1.1 1.1-.1.6-.6 1.1-1.1 1.1"/>
</svg>
