<svg width="14" height="14" viewBox="0 0 14 14" fill="none" xmlns="http://www.w3.org/2000/svg">
<path d="M10 0C12.2091 0 14 1.79086 14 4V10C14 12.2091 12.2091 14 10 14H4C1.79086 14 0 12.2091 0 10V4C0 1.79086 1.79086 0 4 0H10ZM11.6016 3.28125C11.5163 3.28126 11.4321 3.29813 11.3535 3.33105C11.2749 3.36409 11.2032 3.41272 11.1436 3.47363L11.126 3.49316L6.40137 9.11523L3.73047 6.4082C3.67078 6.34735 3.59909 6.29863 3.52051 6.26562C3.442 6.23272 3.35759 6.21582 3.27246 6.21582C3.18732 6.21583 3.10293 6.2327 3.02441 6.26562C2.94582 6.29864 2.87415 6.34734 2.81445 6.4082C2.69307 6.532 2.62503 6.69869 2.625 6.87207C2.625 7.04549 2.69304 7.21212 2.81445 7.33594L5.96289 10.5264C6.02398 10.5885 6.09705 10.6379 6.17773 10.6709C6.25847 10.7039 6.34543 10.7194 6.43262 10.7178C6.51977 10.716 6.60615 10.6971 6.68555 10.6611C6.76484 10.6251 6.83589 10.5732 6.89453 10.5088L12.0684 4.39258C12.3134 4.13533 12.3099 3.72651 12.0596 3.47363C11.9999 3.41274 11.9282 3.36408 11.8496 3.33105C11.771 3.29814 11.6867 3.28125 11.6016 3.28125Z" fill="#006BBD"/>
</svg>
