<svg width="24" height="24" viewBox="0 0 24 24" fill="none" xmlns="http://www.w3.org/2000/svg">
<path d="M18 2.051C18.65 2.115 19.088 2.259 19.414 2.586C20 3.172 20 4.114 20 6V18H6C5.46957 18 4.96086 18.2107 4.58579 18.5858C4.21071 18.9609 4 19.4696 4 20C4 20.5304 4.21071 21.0391 4.58579 21.4142C4.96086 21.7893 5.46957 22 6 22H20M4 20V8C4 5.172 4 3.757 4.879 2.879C5.369 2.389 6.025 2.172 7 2.076" stroke="#fff" stroke-width="1.5" stroke-linecap="round" stroke-linejoin="round"/>
<path d="M19.5 18C19.5 18 18.5 18.763 18.5 20C18.5 21.237 19.5 22 19.5 22M9 5C9 5 11.21 2 12 2C12.79 2 15 5 15 5M9 10C9 10 11.21 7 12 7C12.79 7 15 10 15 10M12 8V13" stroke="#fff" stroke-width="1.5" stroke-linecap="round" stroke-linejoin="round"/>
</svg>
