<svg width="76" height="80" viewBox="0 0 76 80" fill="none" xmlns="http://www.w3.org/2000/svg">
<g id="Logo KB">
<g id="Union">
<path d="M41.5063 6.44337L40.1897 6.42788L36.7512 2.44724L36.6893 6.36593L35.1249 6.33495L35.2178 0L36.6583 0.0154898L39.9884 3.79477L40.0503 0.0619569L41.6147 0.0929341L41.5063 6.44337Z" fill="#523314"/>
<path d="M30.9893 5.01845C30.9273 4.83259 30.8499 4.60025 30.7415 4.36792L29.332 1.22368L27.876 1.87421L29.1616 4.70868L29.3475 5.12688C29.4094 5.25079 29.4404 5.3747 29.4714 5.5141C29.6263 6.18012 29.239 6.87712 28.542 7.18689C27.969 7.43472 27.3959 7.38825 26.9622 7.04749C26.6989 6.84614 26.513 6.58283 26.2652 6.00974L24.9796 3.1443L23.5237 3.79483L24.9486 6.98554C25.2739 7.729 25.6147 8.16269 26.1258 8.44149C26.4046 8.59638 26.7298 8.7048 27.0706 8.75127C27.7057 8.81322 28.2787 8.72029 29.0222 8.37954C29.3784 8.22465 29.7037 8.03878 29.967 7.85292C30.4627 7.49667 30.8809 6.89261 31.0358 6.36598C31.1442 5.96327 31.1442 5.46763 30.9893 5.01845Z" fill="#523314"/>
<path d="M19.6514 10.8578L24.0348 11.0436L22.7028 12.5151L18.8151 12.3757L21.0145 14.3737L19.9457 15.5509L15.2526 11.2914L16.3213 10.1143L18.4433 12.0504L18.4588 12.0349L17.6689 8.62736L18.8305 7.34178L19.6514 10.8578Z" fill="#523314"/>
<path d="M19.2487 71.2334H17.9632V66.9429H19.2487V71.2334Z" fill="#523314"/>
<path d="M18.6137 66.2769C18.211 66.2769 17.8702 65.9517 17.8702 65.5644C17.8702 65.1308 18.211 64.8055 18.6292 64.8055C19.0319 64.8055 19.3571 65.1462 19.3571 65.5644C19.3571 65.9517 19.0319 66.2769 18.6137 66.2769Z" fill="#523314"/>
<path d="M6.79571 71.2333H5.47915L1.97867 67.3146V71.2333H0.398804V64.8984H1.83927L5.23133 68.6312V64.8984H6.79571V71.2333Z" fill="#523314"/>
<path fill-rule="evenodd" clip-rule="evenodd" d="M12.8364 70.18L12.7744 70.211C12.5266 70.3504 12.4182 70.3814 12.3097 70.3814C12.1394 70.3814 12.0929 70.3039 12.0929 70.0406V68.3523C12.0929 67.9496 12.0619 67.7483 11.969 67.5779C11.7212 67.1442 11.1171 66.8809 10.2807 66.8809C9.98641 66.8809 9.59919 66.9274 9.33588 67.0048C9.05708 67.0823 8.66986 67.2526 8.42204 67.4075V68.5072C8.85573 68.0581 9.45979 67.7793 10.0019 67.7793C10.513 67.7793 10.7454 67.9961 10.7454 68.4453V68.5072L10.6834 68.5227L10.4821 68.5847L10.2187 68.6621C9.39784 68.9254 9.1655 69.0029 8.90219 69.1423C8.4685 69.3901 8.22068 69.7773 8.22068 70.1955C8.22068 70.846 8.73182 71.3262 9.41333 71.3262C9.87799 71.3262 10.2652 71.2023 10.7299 70.908L10.8228 70.846C10.9157 71.1868 11.1326 71.3262 11.5818 71.3262C11.938 71.3262 12.4801 71.1713 12.8519 70.939V70.18H12.8364ZM10.7454 69.1578V70.1955C10.544 70.3969 10.2497 70.5053 10.0329 70.5053C9.76957 70.5053 9.56821 70.3039 9.56821 70.0561C9.56821 69.7463 9.78506 69.5295 10.2807 69.3436L10.6369 69.2042L10.7454 69.1578Z" fill="#523314"/>
<path d="M15.2836 67.8723H16.817V66.9739H15.2681V65.6264H15.0823L13.2856 67.6554V67.9032H13.9051V69.4521C13.9051 70.1336 13.9671 70.3969 14.1684 70.6912C14.4627 71.0939 14.9584 71.3263 15.5624 71.3263C15.9961 71.3263 16.3369 71.2643 16.817 71.063V70.0872C16.7861 70.1027 16.7551 70.1181 16.7396 70.1181C16.4143 70.273 16.1975 70.335 15.9187 70.335C15.4075 70.335 15.2836 70.1026 15.2836 69.2043V67.8723Z" fill="#523314"/>
<path fill-rule="evenodd" clip-rule="evenodd" d="M24.7628 67.7019C25.0726 68.0736 25.2275 68.5228 25.2275 69.1114C25.2275 70.4279 24.2517 71.3108 22.8267 71.3263C21.4017 71.3263 20.3949 70.4124 20.3949 69.1114C20.3949 67.8258 21.4172 66.8655 22.8267 66.8655C23.6166 66.8655 24.3136 67.1598 24.7628 67.7019ZM23.5237 70.1181C23.6941 69.8858 23.756 69.5915 23.7715 69.0804V69.0184C23.7715 68.1356 23.4463 67.6864 22.7802 67.6864C22.1452 67.6864 21.8354 68.1511 21.8354 69.1423C21.8354 70.0252 22.1762 70.4744 22.8112 70.4744C23.1055 70.4744 23.3533 70.366 23.5237 70.1181Z" fill="#523314"/>
<path d="M27.8451 67.5625C28.2788 67.0823 28.697 66.8655 29.2391 66.8655C29.8741 66.8655 30.3853 67.1753 30.6486 67.7019C30.7725 67.9652 30.8189 68.1665 30.8189 68.7086V71.2333H29.4559V68.8171C29.4559 68.0581 29.2855 67.8103 28.7899 67.8103C28.4491 67.8103 28.0774 68.0736 27.8451 68.4763V71.2333H26.4975V66.9429H27.8451V67.5625Z" fill="#523314"/>
<path fill-rule="evenodd" clip-rule="evenodd" d="M36.6118 70.211L36.6737 70.18H36.6892V70.939C36.3175 71.1713 35.7754 71.3262 35.4191 71.3262C34.9699 71.3262 34.7531 71.1868 34.6602 70.846L34.5672 70.908C34.1026 71.2023 33.7153 71.3262 33.2507 71.3262C32.5692 71.3262 32.058 70.846 32.058 70.1955C32.058 69.7773 32.3059 69.3901 32.7395 69.1423C33.0029 69.0029 33.2352 68.9254 34.0561 68.6621L34.3194 68.5847L34.5208 68.5227L34.5827 68.5072V68.4453C34.5827 67.9961 34.3504 67.7793 33.8393 67.7793C33.2971 67.7793 32.6931 68.0581 32.2594 68.5072V67.4075C32.5072 67.2526 32.8944 67.0823 33.1732 67.0048C33.4365 66.9274 33.8238 66.8809 34.1181 66.8809C34.9545 66.8809 35.5585 67.1442 35.8063 67.5779C35.8993 67.7483 35.9303 67.9496 35.9303 68.3523V70.0406C35.9303 70.3039 35.9767 70.3814 36.1471 70.3814C36.2555 70.3814 36.3639 70.3504 36.6118 70.211ZM34.5827 70.1955V69.1578L34.4743 69.2042L34.1181 69.3436C33.6224 69.5295 33.4056 69.7463 33.4056 70.0561C33.4056 70.3039 33.6069 70.5053 33.8702 70.5053C34.0871 70.5053 34.3814 70.3969 34.5827 70.1955Z" fill="#523314"/>
<path d="M38.997 71.2333H37.634V64.8984H38.997V71.2333Z" fill="#523314"/>
<path d="M43.0396 71.2333H47.8722V70.0561H44.635V64.8984H43.0396V71.2333Z" fill="#523314"/>
<path d="M50.3039 71.2334H49.0183V66.9429H50.3039V71.2334Z" fill="#523314"/>
<path d="M49.6844 66.2769C49.2817 66.2769 48.9409 65.9517 48.9409 65.5644C48.9409 65.1308 49.2817 64.8055 49.6999 64.8055C50.1026 64.8055 50.4278 65.1462 50.4278 65.5644C50.4278 65.9517 50.1026 66.2769 49.6844 66.2769Z" fill="#523314"/>
<path fill-rule="evenodd" clip-rule="evenodd" d="M51.8373 64.8984H53.1849V67.1752C53.6031 66.9274 53.8664 66.8499 54.2846 66.8499C55.5237 66.8499 56.3756 67.7483 56.3756 69.0649C56.3756 70.3969 55.5547 71.3107 54.3775 71.3107C53.9593 71.3107 53.5566 71.1713 53.1849 70.908V71.2333H51.8373V64.8984ZM53.9593 67.7793C53.7115 67.7793 53.4017 67.8877 53.1849 68.0581H53.1694V70.0406C53.4637 70.2575 53.7115 70.3504 53.9748 70.3504C54.6253 70.3504 55.028 69.8703 55.028 69.0649C55.028 68.2594 54.6253 67.7793 53.9593 67.7793Z" fill="#523314"/>
<path d="M59.0396 68.182H59.0551C59.179 67.8567 59.3649 67.5779 59.5508 67.3301C59.7986 67.0358 60.0929 66.8809 60.4182 66.8809C60.6815 66.8809 60.9293 66.9893 61.3165 67.2681L60.9448 68.4608C60.635 68.2439 60.4027 68.151 60.1548 68.151C59.7366 68.151 59.3339 68.5692 59.1171 69.1887L59.0706 69.3436L59.0396 69.4056V71.2488H57.6921V66.9583H59.0396V68.182Z" fill="#523314"/>
<path fill-rule="evenodd" clip-rule="evenodd" d="M66.3195 70.211L66.3814 70.18H66.3969V70.939C66.0252 71.1713 65.4831 71.3262 65.1268 71.3262C64.6776 71.3262 64.4608 71.1868 64.3679 70.846L64.2749 70.908C63.8103 71.2023 63.423 71.3262 62.9584 71.3262C62.2769 71.3262 61.7657 70.846 61.7657 70.1955C61.7657 69.7773 62.0136 69.3901 62.4472 69.1423C62.7106 69.0029 62.9429 68.9254 63.7638 68.6621L64.0271 68.5847L64.2285 68.5227L64.2904 68.5072V68.4453C64.2904 67.9961 64.0581 67.7793 63.5469 67.7793C63.0048 67.7793 62.4008 68.0581 61.9671 68.5072V67.4075C62.2149 67.2526 62.6021 67.0823 62.8809 67.0048C63.1442 66.9274 63.5315 66.8809 63.8257 66.8809C64.6621 66.8809 65.2662 67.1442 65.514 67.5779C65.607 67.7483 65.6379 67.9496 65.6379 68.3523V70.0406C65.6379 70.3039 65.6844 70.3814 65.8548 70.3814C65.9632 70.3814 66.0716 70.3504 66.3195 70.211ZM64.2904 70.1955V69.1578L64.182 69.2042L63.8257 69.3436C63.3301 69.5295 63.1133 69.7463 63.1133 70.0561C63.1133 70.3039 63.3146 70.5053 63.5779 70.5053C63.7948 70.5053 64.0891 70.3969 64.2904 70.1955Z" fill="#523314"/>
<path d="M68.6893 68.182H68.7047C68.8287 67.8567 69.0145 67.5779 69.2004 67.3301C69.4482 67.0358 69.7425 66.8809 70.0678 66.8809C70.3311 66.8809 70.5789 66.9893 70.9661 67.2681L70.5944 68.4608C70.2846 68.2439 70.0523 68.151 69.8045 68.151C69.3863 68.151 68.9835 68.5692 68.7667 69.1887L68.7202 69.3436L68.6893 69.4056V71.2488H67.3417V66.9583H68.6893V68.182Z" fill="#523314"/>
<path d="M71.7096 73.2934H73.15L76 66.9429H74.5905L73.6302 69.0649L72.7318 66.9429H71.2914L72.9642 70.5363L71.7096 73.2934Z" fill="#523314"/>
<path fill-rule="evenodd" clip-rule="evenodd" d="M19.1094 77.7851C19.1094 77.1965 18.9545 76.7474 18.6447 76.3756C18.1955 75.8335 17.4985 75.5392 16.7086 75.5392C15.2991 75.5392 14.2768 76.4995 14.2768 77.7851C14.2768 79.0862 15.2836 80 16.7086 80C18.1336 79.9846 19.1094 79.1017 19.1094 77.7851ZM17.6534 77.7542C17.6379 78.2653 17.576 78.5596 17.4056 78.7919C17.2352 79.0397 16.9874 79.1482 16.6931 79.1482C16.0581 79.1482 15.7173 78.699 15.7173 77.8161C15.7173 76.8248 16.0271 76.3602 16.6621 76.3602C17.3282 76.3602 17.6534 76.8093 17.6534 77.6922V77.7542Z" fill="#523314"/>
<path d="M22.5324 76.5149V75.6476H21.8974V75.5237C21.8974 74.8731 22.1142 74.6253 22.6563 74.6253C22.7957 74.6253 22.9661 74.6408 23.183 74.6718L23.2604 74.6873V73.603L23.1984 73.5875L22.8887 73.5411C22.7493 73.5256 22.6098 73.5101 22.455 73.5101C22.0058 73.5101 21.6496 73.603 21.3398 73.8044C21.1384 73.9283 20.9681 74.0987 20.8596 74.3C20.6738 74.6098 20.5963 74.9196 20.5653 75.5237V75.6321H19.9458V76.5304H20.5653V79.8915H21.9129V76.5149H22.5324Z" fill="#523314"/>
<path d="M30.9118 75.2758L30.8034 75.2139C30.0445 74.8267 29.4249 74.6563 28.8673 74.6563C28.2942 74.6563 27.9225 74.8576 27.9225 75.1674C27.9225 75.4307 28.2478 75.6631 28.9602 75.9264L29.4559 76.1122C30.6795 76.5459 31.2061 77.15 31.2061 78.1103C31.2061 79.241 30.2148 79.9845 28.7279 79.9845C28.1858 79.9845 27.6902 79.876 27.0551 79.6437C26.9654 79.6063 26.8956 79.578 26.8388 79.555L26.8379 79.5546C26.6602 79.4825 26.611 79.4625 26.482 79.3804V78.0174C26.9467 78.3117 27.1945 78.451 27.5043 78.5595C27.907 78.7299 28.2787 78.8073 28.6814 78.8073C29.301 78.8073 29.6418 78.6059 29.6418 78.2342C29.6418 77.9244 29.4249 77.7386 28.7899 77.5217L28.4491 77.3978C27.9535 77.2274 27.6902 77.1035 27.3959 76.9486C27.148 76.8247 26.9622 76.6544 26.8073 76.484C26.544 76.1897 26.3891 75.756 26.3891 75.3068C26.3891 74.2226 27.3339 73.5101 28.7899 73.5101C29.5024 73.5101 30.1219 73.6495 30.9428 74.0058V75.2758H30.9118Z" fill="#523314"/>
<path d="M36.6118 79.9845H37.2468L39.1829 75.6167H37.8199L36.9061 77.8935L35.9612 75.6167H35.1558L34.1955 77.8935L33.2972 75.6167H31.9187L33.8548 79.9845H34.4898L35.574 77.6457L36.6118 79.9845Z" fill="#523314"/>
<path fill-rule="evenodd" clip-rule="evenodd" d="M44.3098 78.5595L44.2478 78.6059C43.6438 79.0087 43.241 79.1481 42.7144 79.1481C41.8625 79.1481 41.3514 78.7144 41.3049 77.9709H44.3872V77.847C44.3872 76.4685 43.4889 75.5237 42.1878 75.5237C40.8867 75.5237 39.9264 76.4685 39.9264 77.7541C39.9264 79.0861 40.8712 79.969 42.2807 79.969C43.1326 79.969 43.8141 79.7676 44.3098 79.3959V78.5595ZM41.3359 77.2739C41.3824 76.7318 41.7541 76.3601 42.2498 76.3601C42.7764 76.3601 43.1326 76.7163 43.1946 77.2739H41.3359Z" fill="#523314"/>
<path fill-rule="evenodd" clip-rule="evenodd" d="M48.6002 73.5721H49.9322V79.9071H48.6002V79.5663C48.2129 79.8761 47.8567 80 47.4075 80C46.2614 80 45.4095 79.0552 45.4095 77.7696C45.4095 76.4685 46.2614 75.5547 47.485 75.5547C47.8722 75.5547 48.2439 75.6476 48.6002 75.818V73.5721ZM47.7948 79.0397C48.0736 79.0397 48.3214 78.9468 48.5847 78.7299H48.6002V76.6854C48.3988 76.546 48.089 76.4376 47.8412 76.4376C47.1752 76.4376 46.788 76.9177 46.788 77.7696C46.788 78.5595 47.1752 79.0397 47.7948 79.0397Z" fill="#523314"/>
<path fill-rule="evenodd" clip-rule="evenodd" d="M55.6011 78.5595L55.5392 78.6059C54.9351 79.0087 54.5324 79.1481 54.0058 79.1481C53.1539 79.1481 52.6428 78.7144 52.5963 77.9709H55.6786V77.847C55.6786 76.4685 54.7802 75.5237 53.4792 75.5237C52.1781 75.5237 51.2178 76.4685 51.2178 77.7541C51.2178 79.0861 52.1626 79.969 53.5721 79.969C54.424 79.969 55.1055 79.7676 55.6011 79.3959V78.5595ZM52.6273 77.2739C52.6737 76.7318 53.0455 76.3601 53.5411 76.3601C54.0677 76.3601 54.424 76.7163 54.4859 77.2739H52.6273Z" fill="#523314"/>
<path d="M59.6592 75.5392C59.1171 75.5392 58.6989 75.7561 58.2652 76.2362V75.6167H56.9177V79.9071H58.2652V77.1501C58.4975 76.7474 58.8693 76.4841 59.21 76.4841C59.7057 76.4841 59.876 76.7319 59.876 77.4908V79.9071H61.2391V77.3824C61.2391 76.8403 61.1926 76.639 61.0687 76.3756C60.8054 75.849 60.2942 75.5392 59.6592 75.5392Z" fill="#523314"/>
<path d="M52.0697 5.69987L52.1472 5.79281L52.7357 4.5537C52.4569 4.22843 52.3485 4.12001 52.1007 3.90316C51.7135 3.56241 51.2178 3.23714 50.7222 3.00481C48.6622 2.01352 46.6951 2.52465 45.8587 4.2749C45.0378 5.99416 45.8587 7.8838 47.8412 8.84411C48.8016 9.30878 49.8548 9.44818 50.6602 9.24682L51.7909 6.89251L49.5295 5.79281L49.0184 6.86154L49.8393 7.26425L49.514 7.93027C49.1113 7.89929 48.7551 7.80636 48.3988 7.63598C47.2991 7.10936 46.85 6.02514 47.3301 5.03385C47.8567 3.91865 48.9874 3.62436 50.273 4.24392C50.9235 4.5537 51.5586 5.06483 52.0697 5.69987Z" fill="#523314"/>
<path d="M56.1897 15.7986L52.9835 12.1743L57.7231 7.97677L58.7763 9.16941L54.9196 12.5925L57.0571 15.0087L56.1897 15.7986Z" fill="#523314"/>
<path fill-rule="evenodd" clip-rule="evenodd" d="M10.7763 20.7705L17.0184 21.9012L16.6002 24.2865C16.4762 24.937 16.4298 25.1539 16.2594 25.4791C15.9186 26.1451 15.2526 26.5324 14.6021 26.4085C14.0755 26.3155 13.6573 25.9128 13.5024 25.3397C13.0687 26.1761 12.4646 26.5169 11.6437 26.362C10.8538 26.2071 10.3117 25.6495 10.1878 24.8286C10.1413 24.5188 10.1568 24.1781 10.2497 23.636L10.7763 20.7705ZM15.5159 23.8993L15.6244 23.2797L14.2613 23.0319L14.1529 23.6205C14.0135 24.3794 14.1529 24.7047 14.6486 24.7976C15.1287 24.8906 15.392 24.6272 15.5159 23.8993ZM13.0067 23.5275L13.1306 22.8305L11.6282 22.5517L11.4888 23.3262C11.303 24.302 11.4424 24.6737 12 24.7666C12.5885 24.8751 12.8209 24.5808 13.0067 23.5275Z" fill="#523314"/>
<path d="M10.2498 32.8984L10.0329 31.3185L16.3214 30.4666L16.5382 32.0465L10.2498 32.8984Z" fill="#523314"/>
<path fill-rule="evenodd" clip-rule="evenodd" d="M11.7057 38.5827L17.3746 35.7483L18.4588 37.9012C18.7686 38.5053 18.846 38.7066 18.908 39.0629C19.0319 39.7909 18.7221 40.5034 18.1336 40.7976C17.6689 41.03 17.0803 40.9525 16.6157 40.5963C16.755 41.5256 16.4762 42.1607 15.7328 42.5324C15.0203 42.8886 14.2459 42.7647 13.6573 42.1762C13.4249 41.9593 13.2391 41.6805 12.9913 41.1849L11.7057 38.5827ZM17.3591 38.242L17.0803 37.6844L15.8412 38.3039L16.1045 38.8306C16.4453 39.5276 16.755 39.6979 17.2042 39.4811C17.6379 39.2642 17.6844 38.8925 17.3591 38.242ZM15.1287 39.4501L14.8189 38.8151L13.4559 39.4966L13.7967 40.1936C14.2304 41.0919 14.5556 41.2933 15.0668 41.0455C15.5934 40.7822 15.6089 40.4104 15.1287 39.4501Z" fill="#523314"/>
<path d="M20.8751 50.7724L17.3436 47.4888L21.6495 42.8421L22.8267 43.9264L19.3107 47.7211L21.6805 49.9206L20.8751 50.7724Z" fill="#523314"/>
<path d="M23.6785 52.5383L25.0725 53.3127L28.1548 47.7677L26.7608 46.9933L23.6785 52.5383Z" fill="#523314"/>
<path fill-rule="evenodd" clip-rule="evenodd" d="M37.4482 53.545C37.7579 51.7328 36.4259 50.06 34.4124 49.7192C32.3833 49.3785 30.5866 50.5247 30.2923 52.3368C29.9825 54.1336 31.3146 55.7909 33.3126 56.1316C35.3417 56.4724 37.1384 55.3572 37.4482 53.545ZM35.8218 53.3126C35.636 54.4124 34.6757 55.0629 33.545 54.877C32.3678 54.6757 31.7018 53.7773 31.8877 52.6311C32.089 51.454 32.9874 50.8499 34.1645 51.0513C35.3727 51.2526 36.0387 52.1355 35.8218 53.3126Z" fill="#523314"/>
<path d="M44.2633 50.4627L46.4782 49.9206L46.1994 48.7589L40.1897 50.2149L40.4685 51.3765L42.6989 50.8344L43.907 55.8373L45.4714 55.4656L44.2633 50.4627Z" fill="#523314"/>
<path d="M56.6079 49.5954L52.8286 52.3524L49.0958 47.2411L52.8131 44.5151L53.5101 45.4754L51.0784 47.2566L51.8373 48.2944L54.1607 46.6061L54.8577 47.5664L52.5343 49.2547L53.4327 50.4783L55.9109 48.6661L56.6079 49.5954Z" fill="#523314"/>
<path d="M63.7793 40.2246L59.4424 40.8286L58.0019 37.5295L57.0881 39.0009L58.4666 42.2071L58.4511 42.2226L56.0194 40.7047L55.183 42.0522L60.5731 45.3978L61.4095 44.0503L58.8848 42.4859L62.7415 41.9128L63.7793 40.2246Z" fill="#523314"/>
<path d="M66.1645 31.0707L65.3126 35.6709L59.0861 34.5092L59.938 29.971L61.0997 30.1878L60.5421 33.1462L61.7967 33.3785L62.3233 30.5595L63.5004 30.7764L62.9738 33.5954L64.4762 33.8742L65.0338 30.8538L66.1645 31.0707Z" fill="#523314"/>
<path d="M60.3872 22.7686L59.9226 20.5382L58.7454 20.786L60.0155 26.8421L61.1772 26.5943L60.7125 24.3484L65.7464 23.2952L65.4211 21.7153L60.3872 22.7686Z" fill="#523314"/>
<path d="M37.1229 21.2352V23.1868C37.1229 23.1868 32.1355 23.0164 25.8315 24.7512L25.3978 22.8306C25.3978 22.8306 31.5314 21.1733 37.1229 21.2352Z" fill="#523314"/>
<path d="M39.2147 21.2352H37.1229L37.1228 19.2681C37.1228 19.2681 38.0367 19.2526 39.2293 19.2681V21.235C44.606 21.1637 50.5066 22.6928 50.944 22.8082L51.3726 20.91C52.5343 21.1578 53.4327 21.3746 53.4327 21.3746L52.999 23.2953L50.9651 22.8365L50.5406 24.7315C50.8129 24.805 52.5653 25.2003 52.5653 25.2003L50.5208 34.2613L48.4607 33.7812L50.5005 24.7414C44.2133 23.0172 39.2138 23.2023 39.2138 23.2023V21.2352L39.2147 21.2352Z" fill="#523314"/>
<path d="M37.1073 23.2023L39.2138 23.2023L39.2293 33.8277H37.1229L37.1073 23.2023Z" fill="#523314"/>
<path d="M27.8605 33.8122L37.1229 33.8277V35.8722L28.3097 35.8567L27.8605 33.8122Z" fill="#523314"/>
<path d="M39.2294 33.7812H48.4607L48.0115 35.8722H39.2294V33.7812Z" fill="#523314"/>
<path d="M23.3223 23.3263L22.8886 21.4056C22.8886 21.4056 23.7715 21.1888 24.9486 20.941L25.3823 22.8616L23.3223 23.3263Z" fill="#523314"/>
<path d="M25.8005 34.2769L23.756 25.2159C23.756 25.2159 25.816 24.7512 25.816 24.7358L27.8605 33.7967L25.8005 34.2769Z" fill="#523314"/>
<path d="M15.485 18.2148C15.0513 18.2148 14.6641 17.8431 14.6641 17.4094C14.6641 16.9602 15.0203 16.6039 15.4695 16.6039C15.9187 16.6039 16.2749 16.9602 16.2749 17.4094C16.2904 17.8431 15.9187 18.2148 15.485 18.2148Z" fill="#523314"/>
<path d="M59.783 17.3787C59.783 17.8123 60.1703 18.1841 60.604 18.1841C61.0531 18.1841 61.4094 17.8123 61.3939 17.3787C61.3939 16.9295 61.0377 16.5732 60.5885 16.5732C60.1393 16.5732 59.783 16.9295 59.783 17.3787Z" fill="#523314"/>
</g>
</g>
</svg>
