<?xml version="1.0" encoding="utf-8"?>
<!-- Generator: Adobe Illustrator 24.3.0, SVG Export Plug-In . SVG Version: 6.00 Build 0)  -->
<svg version="1.1" id="Lager_1" xmlns="http://www.w3.org/2000/svg" xmlns:xlink="http://www.w3.org/1999/xlink" x="0px" y="0px"
	 viewBox="0 0 595.3 841.9" style="enable-background:new 0 0 595.3 841.9;" xml:space="preserve">
<style type="text/css">
	.st0{fill:#010202;}
</style>
<g>
	<path class="st0" d="M85.9,604.8h-8.5l-22.6-25.3v25.3H44.6v-40.9h9.3L75.8,588v-24.1h10.1V604.8z"/>
	<path class="st0" d="M111.4,591.4v6.7c-1.3,1.3-3.2,2-4.6,2c-1.7,0-3-1.3-3-2.9c0-2,1.4-3.4,4.6-4.6l2.3-0.9L111.4,591.4z
		 M124.9,598l-0.4,0.2c-1.6,0.9-2.3,1.1-3,1.1c-1.1,0-1.4-0.5-1.4-2.2v-10.9c0-2.6-0.2-3.9-0.8-5c-1.6-2.8-5.5-4.5-10.9-4.5
		c-1.9,0-4.4,0.3-6.1,0.8c-1.8,0.5-4.3,1.6-5.9,2.6v7.1c2.8-2.9,6.7-4.7,10.2-4.7c3.3,0,4.8,1.4,4.8,4.3v0.4l-0.4,0.1l-1.3,0.4
		l-1.7,0.5c-5.3,1.7-6.8,2.2-8.5,3.1c-2.8,1.6-4.4,4.1-4.4,6.8c0,4.2,3.3,7.3,7.7,7.3c3,0,5.5-0.8,8.5-2.7l0.6-0.4
		c0.6,2.2,2,3.1,4.9,3.1c2.3,0,5.8-1,8.2-2.5V598z"/>
	<path class="st0" d="M150.7,583.1h-10v6.1v1.7v0.8c0,5.8,0.8,7.3,4.1,7.3c1.8,0,3.2-0.4,5.3-1.4c0.1,0,0.3-0.1,0.5-0.2v6.3
		c-3.1,1.3-5.3,1.7-8.1,1.7c-3.9,0-7.1-1.5-9-4.1c-1.3-1.9-1.7-3.6-1.7-8v-10h-4v-1.6l11.6-13.1h1.2v8.7h10V583.1z"/>
	<path class="st0" d="M166.3,604.8h-8.3v-27.7h8.3V604.8z M162.2,572.8c-2.6,0-4.8-2.1-4.8-4.6c0-2.8,2.2-4.9,4.9-4.9
		c2.6,0,4.7,2.2,4.7,4.9C167,570.7,164.9,572.8,162.2,572.8z"/>
	<path class="st0" d="M195.5,590.9c-0.1,3.3-0.5,5.2-1.6,6.7c-1.1,1.6-2.7,2.3-4.6,2.3c-4.1,0-6.3-2.9-6.3-8.6c0-6.4,2-9.4,6.1-9.4
		c4.3,0,6.4,2.9,6.4,8.6V590.9z M204.9,591.1c0-3.8-1-6.7-3-9.1c-2.9-3.5-7.4-5.4-12.5-5.4c-9.1,0-15.7,6.2-15.7,14.5
		c0,8.4,6.5,14.3,15.7,14.3C198.6,605.3,204.9,599.6,204.9,591.1z"/>
	<path class="st0" d="M221.8,581.1c2.8-3.1,5.5-4.5,9-4.5c4.1,0,7.4,2,9.1,5.4c0.8,1.7,1.1,3,1.1,6.5v16.3h-8.8v-15.6
		c0-4.9-1.1-6.5-4.3-6.5c-2.2,0-4.6,1.7-6.1,4.3v17.8h-8.7v-27.7h8.7V581.1z"/>
	<path class="st0" d="M265.3,591.4v6.7c-1.3,1.3-3.2,2-4.6,2c-1.7,0-3-1.3-3-2.9c0-2,1.4-3.4,4.6-4.6l2.3-0.9L265.3,591.4z
		 M278.8,598l-0.4,0.2c-1.6,0.9-2.3,1.1-3,1.1c-1.1,0-1.4-0.5-1.4-2.2v-10.9c0-2.6-0.2-3.9-0.8-5c-1.6-2.8-5.5-4.5-10.9-4.5
		c-1.9,0-4.4,0.3-6.1,0.8c-1.8,0.5-4.3,1.6-5.9,2.6v7.1c2.8-2.9,6.7-4.7,10.2-4.7c3.3,0,4.8,1.4,4.8,4.3v0.4l-0.4,0.1l-1.3,0.4
		l-1.7,0.5c-5.3,1.7-6.8,2.2-8.5,3.1c-2.8,1.6-4.4,4.1-4.4,6.8c0,4.2,3.3,7.3,7.7,7.3c3,0,5.5-0.8,8.5-2.7l0.6-0.4
		c0.6,2.2,2,3.1,4.9,3.1c2.3,0,5.8-1,8.2-2.5V598z"/>
	<path class="st0" d="M293.8,604.8h-8.8v-40.9h8.8V604.8z"/>
	<path class="st0" d="M351.1,604.8h-31.2v-40.9h10.3v33.3h20.9V604.8z"/>
	<path class="st0" d="M366.8,604.8h-8.3v-27.7h8.3V604.8z M362.8,572.8c-2.6,0-4.8-2.1-4.8-4.6c0-2.8,2.2-4.9,4.9-4.9
		c2.6,0,4.7,2.2,4.7,4.9C367.6,570.7,365.5,572.8,362.8,572.8z"/>
	<path class="st0" d="M385.4,584.3c1.4-1.1,3.4-1.8,5-1.8c4.3,0,6.9,3.1,6.9,8.3c0,5.2-2.6,8.3-6.8,8.3c-1.7,0-3.3-0.6-5.2-2V584.3z
		 M385.4,563.9h-8.7v40.9h8.7v-2.1c2.4,1.7,5,2.6,7.7,2.6c7.6,0,12.9-5.9,12.9-14.5c0-8.5-5.5-14.3-13.5-14.3
		c-2.7,0-4.4,0.5-7.1,2.1V563.9z"/>
	<path class="st0" d="M423.2,585.1h0.1c0.8-2.1,2-3.9,3.2-5.5c1.6-1.9,3.5-2.9,5.6-2.9c1.7,0,3.3,0.7,5.8,2.5l-2.4,7.7
		c-2-1.4-3.5-2-5.1-2c-2.7,0-5.3,2.7-6.7,6.7l-0.3,1l-0.2,0.4v11.9h-8.7v-27.7h8.7V585.1z"/>
	<path class="st0" d="M457.1,591.4v6.7c-1.3,1.3-3.2,2-4.6,2c-1.7,0-3-1.3-3-2.9c0-2,1.4-3.4,4.6-4.6l2.3-0.9L457.1,591.4z
		 M470.6,598l-0.4,0.2c-1.6,0.9-2.3,1.1-3,1.1c-1.1,0-1.4-0.5-1.4-2.2v-10.9c0-2.6-0.2-3.9-0.8-5c-1.6-2.8-5.5-4.5-10.9-4.5
		c-1.9,0-4.4,0.3-6.1,0.8c-1.8,0.5-4.3,1.6-5.9,2.6v7.1c2.8-2.9,6.7-4.7,10.2-4.7c3.3,0,4.8,1.4,4.8,4.3v0.4l-0.4,0.1l-1.3,0.4
		l-1.7,0.5c-5.3,1.7-6.8,2.2-8.5,3.1c-2.8,1.6-4.4,4.1-4.4,6.8c0,4.2,3.3,7.3,7.7,7.3c3,0,5.5-0.8,8.5-2.7l0.6-0.4
		c0.6,2.2,2,3.1,4.9,3.1c2.3,0,5.8-1,8.2-2.5V598z"/>
	<path class="st0" d="M485.5,585.1h0.1c0.8-2.1,2-3.9,3.2-5.5c1.6-1.9,3.5-2.9,5.6-2.9c1.7,0,3.3,0.7,5.8,2.5l-2.4,7.7
		c-2-1.4-3.5-2-5.1-2c-2.7,0-5.3,2.7-6.7,6.7l-0.3,1l-0.2,0.4v11.9h-8.7v-27.7h8.7V585.1z"/>
	<path class="st0" d="M514.3,618.1H505l8.1-17.8l-10.8-23.2h9.3l5.8,13.7l6.2-13.7h9.1L514.3,618.1z"/>
	<path class="st0" d="M156,646.9c-0.1,3.3-0.5,5.2-1.6,6.7c-1.1,1.6-2.7,2.3-4.6,2.3c-4.1,0-6.3-2.9-6.3-8.6c0-6.4,2-9.4,6.1-9.4
		c4.3,0,6.4,2.9,6.4,8.6V646.9z M165.4,647.1c0-3.8-1-6.7-3-9.1c-2.9-3.5-7.4-5.4-12.5-5.4c-9.1,0-15.7,6.2-15.7,14.5
		c0,8.4,6.5,14.3,15.7,14.3C159.1,661.3,165.4,655.6,165.4,647.1z"/>
	<path class="st0" d="M187.5,633.1v5.8h-4v21.8h-8.7V639h-4v-5.8h4v-0.7c0.2-3.9,0.7-5.9,1.9-7.9c0.7-1.3,1.8-2.4,3.1-3.2
		c2-1.3,4.3-1.9,7.2-1.9c1,0,1.9,0.1,2.8,0.2l2,0.3l0.4,0.1v7l-0.5-0.1c-1.4-0.2-2.5-0.3-3.4-0.3c-3.5,0-4.9,1.6-4.9,5.8v0.8H187.5z
		"/>
	<path class="st0" d="M241.6,630.9l-0.7-0.4c-4.9-2.5-8.9-3.6-12.5-3.6c-3.7,0-6.1,1.3-6.1,3.3c0,1.7,2.1,3.2,6.7,4.9l3.2,1.2
		c7.9,2.8,11.3,6.7,11.3,12.9c0,7.3-6.4,12.1-16,12.1c-3.5,0-6.7-0.7-10.8-2.2c-2.4-1-2.6-1-3.7-1.7v-8.8c3,1.9,4.6,2.8,6.6,3.5
		c2.6,1.1,5,1.6,7.6,1.6c4,0,6.2-1.3,6.2-3.7c0-2-1.4-3.2-5.5-4.6l-2.2-0.8c-3.2-1.1-4.9-1.9-6.8-2.9c-1.6-0.8-2.8-1.9-3.8-3
		c-1.7-1.9-2.7-4.7-2.7-7.6c0-7,6.1-11.6,15.5-11.6c4.6,0,8.6,0.9,13.9,3.2V630.9z"/>
	<path class="st0" d="M282.5,661.3h-4.1l-6.7-15.1l-7,15.1h-4.1l-12.5-28.2h8.9l5.8,14.7l6.2-14.7h5.2l6.1,14.7l5.9-14.7h8.8
		L282.5,661.3z"/>
	<path class="st0" d="M308.9,643.8c0.3-3.5,2.7-5.9,5.9-5.9c3.4,0,5.7,2.3,6.1,5.9H308.9z M328.1,652.1l-0.4,0.3
		c-3.9,2.6-6.5,3.5-9.9,3.5c-5.5,0-8.8-2.8-9.1-7.6h19.9v-0.8c0-8.9-5.8-15-14.2-15c-8.4,0-14.6,6.1-14.6,14.4
		c0,8.6,6.1,14.3,15.2,14.3c5.5,0,9.9-1.3,13.1-3.7V652.1z"/>
	<path class="st0" d="M355.7,653.2c-1.7,1.4-3.3,2-5.1,2c-4,0-6.5-3.1-6.5-8.2c0-5.5,2.5-8.6,6.8-8.6c1.6,0,3.6,0.7,4.9,1.6V653.2z
		 M364.4,619.9h-8.6v14.5c-2.3-1.1-4.7-1.7-7.2-1.7c-7.9,0-13.4,5.9-13.4,14.3c0,8.3,5.5,14.4,12.9,14.4c2.9,0,5.2-0.8,7.7-2.8v2.2
		h8.6V619.9z"/>
	<path class="st0" d="M381.8,643.8c0.3-3.5,2.7-5.9,5.9-5.9c3.4,0,5.7,2.3,6.1,5.9H381.8z M401,652.1l-0.4,0.3
		c-3.9,2.6-6.5,3.5-9.9,3.5c-5.5,0-8.8-2.8-9.1-7.6h19.9v-0.8c0-8.9-5.8-15-14.2-15c-8.4,0-14.6,6.1-14.6,14.4
		c0,8.6,6.1,14.3,15.2,14.3c5.5,0,9.9-1.3,13.1-3.7V652.1z"/>
	<path class="st0" d="M418.2,637.1c2.8-3.1,5.5-4.5,9-4.5c4.1,0,7.4,2,9.1,5.4c0.8,1.7,1.1,3,1.1,6.5v16.3h-8.8v-15.6
		c0-4.9-1.1-6.5-4.3-6.5c-2.2,0-4.6,1.7-6.1,4.3v17.8h-8.7v-27.7h8.7V637.1z"/>
	<path class="st0" d="M168.9,215l28.3,1.2l-8.6,9.5l-25.1-0.9l14.2,12.9l-6.9,7.6l-30.3-27.5l6.9-7.6l13.7,12.5l0.1-0.1l-5.1-22
		l7.5-8.3L168.9,215z"/>
	<path class="st0" d="M240.5,173.1c0.7,1.5,1.2,3,1.6,4.2c1,2.9,1,6.1,0.3,8.7c-1,3.4-3.7,7.3-6.9,9.6c-1.7,1.2-3.8,2.4-6.1,3.4
		c-4.8,2.2-8.5,2.8-12.6,2.4c-2.2-0.3-4.3-1-6.1-2c-3.3-1.8-5.5-4.6-7.6-9.4l-9.2-20.6l9.4-4.2l8.3,18.5c1.6,3.7,2.8,5.4,4.5,6.7
		c2.8,2.2,6.5,2.5,10.2,0.9c4.5-2,7-6.5,6-10.8c-0.2-0.9-0.4-1.7-0.8-2.5l-1.2-2.7L222,157l9.4-4.2L240.5,173.1z"/>
	<path class="st0" d="M310,186.5l-8.5-0.1l-22.2-25.7l-0.4,25.3l-10.1-0.2l0.6-40.9l9.3,0.1l21.5,24.4l0.4-24.1l10.1,0.2L310,186.5z
		"/>
	<path class="st0" d="M378.7,182.3l-0.5-0.6c-3.3-4.1-7.4-7.4-11.6-9.4c-8.3-4-15.6-2.1-19,5.1c-3.1,6.4-0.2,13.4,6.9,16.8
		c2.3,1.1,4.6,1.7,7.2,1.9l2.1-4.3l-5.3-2.6l3.3-6.9l14.6,7.1l-7.3,15.2c-5.2,1.3-12,0.4-18.2-2.6c-12.8-6.2-18.1-18.4-12.8-29.5
		c5.4-11.3,18.1-14.6,31.4-8.2c3.2,1.5,6.4,3.6,8.9,5.8c1.6,1.4,2.3,2.1,4.1,4.2L378.7,182.3z"/>
	<path class="st0" d="M404.8,246.9l-20.7-23.4l30.6-27.1l6.8,7.7l-24.9,22.1l13.8,15.6L404.8,246.9z"/>
	<path class="st0" d="M142.9,295.2l-0.7,4c-0.8,4.7-2.5,6.4-5.6,5.8c-3.2-0.6-4.1-2.7-3.2-7.6l0.7-3.8L142.9,295.2z M151.9,286.3
		l-40.3-7.3l-3.4,18.5c-0.6,3.5-0.7,5.7-0.4,7.7c0.8,5.3,4.3,8.9,9.4,9.9c5.3,1,9.2-1.2,12-6.6c1,3.7,3.7,6.3,7.1,6.9
		c4.2,0.8,8.5-1.7,10.7-6c1.1-2.1,1.4-3.5,2.2-7.7L151.9,286.3z M126.8,292.3l-0.8,4.5c-1.2,6.8-2.7,8.7-6.5,8
		c-3.6-0.6-4.5-3-3.3-9.3l0.9-5L126.8,292.3z"/>
	<path class="st0" d="M108.2,357.3l-1.4-10.2l40.6-5.5l1.4,10.2L108.2,357.3z"/>
	<path class="st0" d="M152.3,388.2l1.8,3.6c2.1,4.2,1.8,6.6-1,8c-2.9,1.4-4.9,0.3-7.1-4.2l-1.7-3.4L152.3,388.2z M154.2,375.7
		l-36.6,18.3l8.3,16.8c1.6,3.2,2.8,5,4.3,6.4c3.8,3.8,8.8,4.6,13.4,2.3c4.8-2.4,6.6-6.5,5.7-12.5c3,2.3,6.8,2.8,9.8,1.3
		c3.8-1.9,5.8-6.5,5-11.2c-0.4-2.3-0.9-3.6-2.9-7.5L154.2,375.7z M137.7,395.5l2,4.1c3.1,6.2,3,8.6-0.4,10.3
		c-3.3,1.6-5.4,0.3-8.2-5.5l-2.2-4.5L137.7,395.5z"/>
	<path class="st0" d="M176.8,472.7L154,451.5l27.8-30l7.6,7L166.7,453l15.3,14.2L176.8,472.7z"/>
	<path class="st0" d="M203.9,489.1l-9-5l19.9-35.8l9,5L203.9,489.1z"/>
	<path class="st0" d="M273.3,489.1c-1.2,7.1-7.4,11.3-14.7,10.1c-7.6-1.3-11.9-7.1-10.7-14.5c1.3-7.6,7.1-11.5,14.7-10.2
		C270.4,475.8,274.7,481.5,273.3,489.1z M283.8,490.6c2-11.7-6.6-22.5-19.6-24.7c-13.1-2.2-24.7,5.2-26.6,16.9
		c-2,11.6,6.6,22.3,19.5,24.5C270.2,509.5,281.8,502.3,283.8,490.6z"/>
	<path class="st0" d="M342.1,467.2l-14.3,3.5l7.8,32.3l-10.1,2.4l-7.8-32.3l-14.4,3.5l-1.8-7.5l38.8-9.4L342.1,467.2z"/>
	<path class="st0" d="M407.5,465.1l-24.4,17.8l-24.1-33l24-17.6l4.5,6.2L371.8,450l4.9,6.7l15-10.9l4.5,6.2l-15,10.9l5.8,7.9
		l16-11.7L407.5,465.1z"/>
	<path class="st0" d="M425.8,408.5l28-3.9l-6.7,10.9l-24.9,3.7l16.3,10.1l-5.4,8.7l-34.8-21.6l5.4-8.7l15.7,9.8l0.1-0.1l-8.9-20.7
		l5.9-9.5L425.8,408.5z"/>
	<path class="st0" d="M469.2,345.5l-5.5,29.7l-40.2-7.5l5.5-29.3l7.5,1.4l-3.6,19.1l8.1,1.5l3.4-18.2l7.6,1.4l-3.4,18.2l9.7,1.8
		l3.6-19.5L469.2,345.5z"/>
	<path class="st0" d="M428.9,277.5l3,14.4l32.5-6.8l2.1,10.2l-32.5,6.8l3,14.5l-7.5,1.6l-8.2-39.1L428.9,277.5z"/>
</g>
<g>
	<g>
		<g>
			<path class="st0" d="M281.7,282l0-12.7c0,0,5.9-0.1,13.6,0l0,12.7L281.7,282z"/>
			<path class="st0" d="M281.7,363.3l-0.1-68.6c0,0,13.6,0,13.6,0l0.1,68.6L281.7,363.3z"/>
			<polygon class="st0" points="224.8,376.4 221.9,363.2 281.7,363.3 281.7,376.5 			"/>
			<polygon class="st0" points="352,376.5 354.9,363 295.3,363 295.3,376.5 			"/>
			<path class="st0" d="M206,292.3c0,0,39.6-10.7,75.7-10.3l0,12.6c0,0-32.2-1.1-72.9,10.1L206,292.3z"/>
			<path class="st0" d="M371.1,292.2c0,0-39.8-10.7-75.9-10.2l0,12.7c0,0,32.4-1.2,73.1,10L371.1,292.2z"/>
			<g>
				<path class="st0" d="M192.6,295.5l-2.8-12.4c0,0,5.7-1.4,13.3-3l2.8,12.4L192.6,295.5z"/>
				<path class="st0" d="M208.6,366.2l-13.2-58.5c0,0,13.3-3,13.3-3.1l13.2,58.5L208.6,366.2z"/>
			</g>
			<g>
				<path class="st0" d="M384.2,295.3l2.8-12.4c0,0-5.8-1.4-13.3-3l-2.8,12.4L384.2,295.3z"/>
				<path class="st0" d="M368.2,366.1l13.2-58.5c0,0-13.3-3-13.3-3.1l-13.2,58.5L368.2,366.1z"/>
			</g>
		</g>
	</g>
</g>
<path class="st0" d="M142,262.5c-2.8,0-5.3-2.4-5.3-5.2c0-2.9,2.3-5.2,5.2-5.2c2.9,0,5.2,2.3,5.2,5.2
	C147.2,260.1,144.8,262.5,142,262.5z"/>
<path class="st0" d="M433.3,262.3c-2.8,0-5.3-2.4-5.3-5.2c0-2.9,2.3-5.2,5.2-5.2c2.9,0,5.2,2.3,5.2,5.2
	C438.5,259.9,436.2,262.3,433.3,262.3z"/>
</svg>
