<svg width="275" height="75" viewBox="0 0 275 75" fill="none" xmlns="http://www.w3.org/2000/svg">
<path d="M64.89 0C15.01 8.54 -12.85 26.14 5.84998 74.44C52.05 76.45 68.09 54.67 64.89 0Z" fill="#B4CD20"/>
<path d="M5.84998 74.44C52.05 76.45 68.09 54.67 64.89 0C39.81 23.95 20.03 48.75 5.84998 74.44Z" fill="#94B622"/>
<g fill="#1D1D1B">
<path d="M108.6 21.81V27.02H101.14V62.93H110.15C115.78 62.93 116.84 61.66 120.22 50.12H124.44V68.14H84.87V62.86H92.05V27.09H84.87V21.81H108.6Z"/>
<path d="M129.16 62.92H134.79V40.74H129.16V35.53H143.03V62.92H148.66V68.13H129.16V62.92ZM133.1 24.55C133.1 21.45 135.28 19.2 138.45 19.2C141.62 19.2 143.73 21.24 143.73 24.34C143.73 27.44 141.62 29.69 138.45 29.69C135.28 29.69 133.1 27.58 133.1 24.55Z"/>
<path d="M154.99 25.12H149.99V19.63H163.16V42.09C165.34 37.72 169.21 34.98 173.79 34.98C177.59 34.98 180.2 36.18 182.24 38.22C185.27 41.25 186.61 45.82 186.61 51.81C186.61 57.3 184.92 62.23 181.89 65.26C179.71 67.44 176.47 68.85 173.23 68.85C167.81 68.85 164.43 66.03 162.11 62.02L159.43 68.57H154.99V25.12ZM177.66 51.87C177.66 44.41 175.34 40.25 170.9 40.25C166.11 40.25 162.8 45.53 162.8 52.57C162.8 59.61 166.39 63.76 170.97 63.76C175.19 63.76 177.66 59.61 177.66 51.86V51.87Z"/>
<path d="M191.46 62.92H196.39V40.74H191.46V35.53H204.27V43.49C206.03 37.79 210.11 35.04 214.13 35.04C217.93 35.04 220.18 37.79 220.18 40.95C220.18 43.84 218.14 46.16 215.39 46.16C212.64 46.16 210.53 44.54 210.53 41.65C210.53 41.37 210.6 41.02 210.67 40.73C208.06 40.73 205.81 43.69 204.62 47.77V62.91H210.74V68.12H191.45V62.91L191.46 62.92Z"/>
<path d="M223.15 62.92H228.78V40.74H223.15V35.53H237.02V62.92H242.65V68.13H223.15V62.92ZM227.09 24.55C227.09 21.45 229.27 19.2 232.44 19.2C235.61 19.2 237.72 21.24 237.72 24.34C237.72 27.44 235.61 29.69 232.44 29.69C229.27 29.69 227.09 27.58 227.09 24.55Z"/>
<path d="M246.59 56.59H251.38C253.56 61.45 257.65 64.76 261.87 64.76C265.32 64.76 266.8 63.14 266.8 60.82C266.8 58.14 264.83 56.88 258.35 55.19C250.54 53.08 247.09 50.4 247.09 44.98C247.09 39.56 251.67 34.98 258.64 34.98C262.3 34.98 265.4 36.32 267.16 38.78L268 34.98H272.72V46.17H268C265.61 41.73 263.07 38.92 258.99 38.92C256.46 38.92 254.41 40.26 254.41 42.65C254.41 45.25 256.66 46.52 262.58 48.07C269.97 50.04 274.06 52.43 274.06 58.35C274.06 63.56 269.7 68.84 262.09 68.84C257.66 68.84 254.28 66.94 252.16 64.4L251.24 68.77H246.59V56.59Z"/>
</g>
</svg>
