<svg focusable="false" xmlns="http://www.w3.org/2000/svg" viewBox="0 0 40 40" fill="none">
  <path d="M0.753242 32.1678L33.8419 0L36.3092 5.0972C37.8673 8.31604 36.885 12.1561 33.9576 14.2906L10.6977 31.25L38.985 15L39.1833 15.3856C41.1684 19.2453 39.402 23.9334 35.322 25.6332L15.8409 33.75L38.985 27.5C39.6833 30.8942 37.3052 34.1618 33.7804 34.6513L22.2698 36.25L29.7032 37.1533C31.4855 37.3698 33.0386 38.4381 33.8419 40H5.50477C4.7236 40 3.98473 39.6548 3.49676 39.0617L0.56356 35.4973C-0.255044 34.5026 -0.173349 33.0685 0.753242 32.1678Z" fill="url(#paint0_linear_5250_22836)"/>
  <defs>
    <linearGradient id="paint0_linear_5250_22836" x1="20" y1="0" x2="20" y2="40" gradientUnits="userSpaceOnUse">
      <stop stop-color="#7B4C1E"/>
      <stop offset="1" stop-color="#674019"/>
    </linearGradient>
  </defs>
</svg>