<svg focusable="false" viewBox="0 0 64 64" fill="none" xmlns="http://www.w3.org/2000/svg">
<path d="M1.20519 51.4685L54.147 0L58.0947 8.15552C60.5877 13.3057 59.016 19.4497 54.3322 22.865L17.1164 50L62.376 24L62.6933 24.6169C65.8695 30.7925 63.0431 38.2935 56.5153 41.0132L25.3454 54L62.376 44C63.4933 49.4307 59.6883 54.6589 54.0487 55.4421L35.6317 58L47.5251 59.4453C50.3768 59.7917 52.8617 61.501 54.147 64H8.80764C7.55776 64 6.37557 63.4478 5.59481 62.4988L0.901696 56.7957C-0.408071 55.2041 -0.277358 52.9097 1.20519 51.4685Z" fill="url(#paint0_linear_5387_96471)"/>
<path opacity="0.6" d="M25.3452 54L62.3758 44C63.4931 49.4307 59.6881 54.6589 54.0485 55.4421C44.7023 56.7402 34.696 54.5184 25.3452 54Z" fill="url(#paint1_linear_5387_96471)"/>
<path opacity="0.6" d="M17.1162 50L62.3758 24L62.6931 24.6169C65.8693 30.7925 63.0429 38.2935 56.5151 41.0132L17.1162 50Z" fill="url(#paint2_linear_5387_96471)"/>
<path opacity="0.6" d="M54.3322 22.865C59 19.5 60.5877 13.3057 58.0947 8.15552L54.1469 0L2.88721 49.8333C2.88721 49.8333 49.6643 26.23 54.3322 22.865Z" fill="url(#paint3_linear_5387_96471)"/>
<defs>
<linearGradient id="paint0_linear_5387_96471" x1="32" y1="0" x2="32" y2="64" gradientUnits="userSpaceOnUse">
<stop stop-color="#7B4C1E"/>
<stop offset="1" stop-color="#674019"/>
</linearGradient>
<linearGradient id="paint1_linear_5387_96471" x1="62.5708" y1="44" x2="22.8651" y2="50.7595" gradientUnits="userSpaceOnUse">
<stop stop-color="#ECCFC0"/>
<stop offset="1" stop-color="#ECCFC0" stop-opacity="0"/>
</linearGradient>
<linearGradient id="paint2_linear_5387_96471" x1="63.9998" y1="24" x2="13.0295" y2="28.9781" gradientUnits="userSpaceOnUse">
<stop stop-color="#ECCFC0"/>
<stop offset="1" stop-color="#ECCFC0" stop-opacity="0"/>
</linearGradient>
<linearGradient id="paint3_linear_5387_96471" x1="59.2672" y1="1.98317e-05" x2="-2.38047" y2="3.77766" gradientUnits="userSpaceOnUse">
<stop stop-color="#ECCFC0"/>
<stop offset="1" stop-color="#ECCFC0" stop-opacity="0"/>
</linearGradient>
</defs>
</svg>