<svg width="100" height="150" viewBox="0 0 100 150" fill="none" xmlns="http://www.w3.org/2000/svg">
<rect width="100" height="150" fill="#F8F7F6"/>
<path d="M31.3333 62.819C33.6933 61.8323 37.0773 60.7683 40.368 60.4377C43.9147 60.0803 46.9227 60.6057 48.6667 62.443V88.4323C46.1733 87.019 43.0133 86.8243 40.0987 87.1177C36.952 87.4377 33.7787 88.347 31.3333 89.2804V62.819ZM51.3333 62.443C53.0773 60.6057 56.0853 60.0803 59.632 60.4377C62.9227 60.7683 66.3067 61.8323 68.6667 62.819V89.2804C66.2187 88.347 63.048 87.435 59.9013 87.1203C56.984 86.8243 53.8267 87.0163 51.3333 88.4323V62.443ZM50 60.0323C47.3733 57.7737 43.5653 57.4377 40.0987 57.7843C36.0613 58.1923 31.9867 59.5763 29.448 60.731C29.2151 60.837 29.0175 61.0077 28.879 61.2228C28.7404 61.438 28.6667 61.6885 28.6667 61.9443V91.2777C28.6667 91.5008 28.7228 91.7203 28.8296 91.9161C28.9365 92.1119 29.0908 92.2778 29.2784 92.3985C29.466 92.5193 29.6809 92.591 29.9034 92.6071C30.1259 92.6233 30.3489 92.5834 30.552 92.491C32.904 91.4243 36.6933 90.1417 40.3653 89.771C44.1227 89.3924 47.272 90.003 48.96 92.1097C49.0849 92.2654 49.2432 92.3911 49.4233 92.4774C49.6033 92.5638 49.8004 92.6086 50 92.6086C50.1996 92.6086 50.3967 92.5638 50.5768 92.4774C50.7568 92.3911 50.9151 92.2654 51.04 92.1097C52.728 90.003 55.8773 89.3924 59.632 89.771C63.3067 90.1417 67.0987 91.4243 69.448 92.491C69.6511 92.5834 69.8741 92.6233 70.0966 92.6071C70.3191 92.591 70.534 92.5193 70.7216 92.3985C70.9092 92.2778 71.0635 92.1119 71.1704 91.9161C71.2772 91.7203 71.3333 91.5008 71.3333 91.2777V61.9443C71.3333 61.6885 71.2596 61.438 71.121 61.2228C70.9825 61.0077 70.7849 60.837 70.552 60.731C68.0133 59.5763 63.9387 58.1923 59.9013 57.7843C56.4347 57.435 52.6267 57.7737 50 60.0323Z" fill="#B4A79B"/>
</svg>
