<svg width="14" height="14" viewBox="0 0 14 14" fill="none" xmlns="http://www.w3.org/2000/svg">
<circle cx="7" cy="7" r="7" fill="#006BBD"/>
<path d="M11.144 3.47375C11.2037 3.41282 11.275 3.36442 11.3536 3.33138C11.4323 3.29833 11.5167 3.28131 11.6021 3.28131C11.6874 3.28131 11.7718 3.29833 11.8505 3.33138C11.9291 3.36442 12.0004 3.41282 12.0601 3.47375C12.3104 3.72663 12.3139 4.13525 12.0689 4.3925L6.895 10.5088C6.83626 10.5733 6.76497 10.6251 6.6855 10.6611C6.60604 10.6971 6.52006 10.7165 6.43283 10.7182C6.3456 10.7198 6.25895 10.7036 6.17819 10.6706C6.09743 10.6376 6.02425 10.5885 5.96312 10.5263L2.81487 7.336C2.69346 7.21218 2.62544 7.04567 2.62544 6.87225C2.62544 6.69883 2.69346 6.53233 2.81487 6.4085C2.87459 6.34757 2.94586 6.29917 3.02451 6.26613C3.10317 6.23308 3.18762 6.21606 3.27294 6.21606C3.35825 6.21606 3.4427 6.23308 3.52136 6.26613C3.60001 6.29917 3.67128 6.34757 3.731 6.4085L6.4015 9.11488L11.1265 3.493L11.144 3.47375Z" fill="white"/>
</svg>
