<svg width="14" height="14" viewBox="0 0 14 14" fill="none" xmlns="http://www.w3.org/2000/svg">
<path d="M7 0C10.866 0 14 3.13401 14 7C14 10.866 10.866 14 7 14C3.13401 14 0 10.866 0 7C0 3.13401 3.13401 0 7 0ZM11.6025 3.28125C11.5172 3.28125 11.4322 3.29802 11.3535 3.33105C11.2749 3.36409 11.2033 3.4127 11.1436 3.47363L11.127 3.49316L6.40137 9.11523L3.73145 6.4082C3.67179 6.34734 3.60003 6.29964 3.52148 6.2666C3.44282 6.23355 3.35777 6.21582 3.27246 6.21582C3.1873 6.21588 3.10293 6.23361 3.02441 6.2666C2.94586 6.29964 2.87411 6.34734 2.81445 6.4082C2.69312 6.53198 2.62505 6.69874 2.625 6.87207C2.625 7.04538 2.69319 7.21214 2.81445 7.33594L5.96289 10.5264C6.02395 10.5885 6.09709 10.6379 6.17773 10.6709C6.25843 10.7039 6.34546 10.7193 6.43262 10.7178C6.51985 10.7161 6.60609 10.6971 6.68555 10.6611C6.76491 10.6252 6.83584 10.5732 6.89453 10.5088L12.0693 4.39258C12.3141 4.13537 12.3106 3.72647 12.0605 3.47363C12.0008 3.4127 11.9292 3.36409 11.8506 3.33105C11.772 3.29807 11.6877 3.28131 11.6025 3.28125Z" fill="#006BBD"/>
</svg>
